<svg width="31" height="31" viewBox="0 0 31 31" fill="none" xmlns="http://www.w3.org/2000/svg">
<g clip-path="url(#clip0_87_127)">
<path d="M0 8.32874L14.5927 0.235015C15.1571 -0.0780127 15.8429 -0.0780127 16.4072 0.235015L31 8.32874H0Z" fill="#AEE69C"/>
<path d="M16.4073 0.234771C15.843 -0.0782568 15.1571 -0.0782568 14.5928 0.234771L14.3149 0.388863L28.63 8.32857H31L16.4073 0.234771Z" fill="#89DAA4"/>
<path d="M15.5 6.19426C16.4301 6.19426 17.1841 5.43989 17.1841 4.50936C17.1841 3.57883 16.4301 2.82446 15.5 2.82446C14.5699 2.82446 13.8159 3.57883 13.8159 4.50936C13.8159 5.43989 14.5699 6.19426 15.5 6.19426Z" fill="#3D6D93"/>
<path d="M15.5001 2.82446C15.1538 2.82446 14.8321 2.92916 14.5645 3.10838C15.0157 3.41063 15.3129 3.92521 15.3129 4.50936C15.3129 5.09352 15.0157 5.60804 14.5645 5.91034C14.8321 6.08963 15.1538 6.19426 15.5001 6.19426C16.4302 6.19426 17.1842 5.43989 17.1842 4.50936C17.1842 3.57883 16.4302 2.82446 15.5001 2.82446Z" fill="#335E80"/>
<path d="M29.1291 28.1919H21.6284L23.4996 25.5569H27.2577L29.1291 28.1919Z" fill="#AEE69C"/>
<path d="M27.2574 25.5569H25.3862L27.2574 28.1919H29.1288L27.2574 25.5569Z" fill="#89DAA4"/>
<path d="M29.1291 11.1367H21.6284L23.4996 13.7719H27.2577L29.1291 11.1367Z" fill="#AEE69C"/>
<path d="M27.2574 11.1367L25.3862 13.7719H27.2574L29.1288 11.1367H27.2574Z" fill="#89DAA4"/>
<path d="M23.4995 13.772H27.2576V25.5567H23.4995V13.772Z" fill="#EAF6FF"/>
<path d="M25.3862 13.772H27.2574V25.5567H25.3862V13.772Z" fill="#D8ECFE"/>
<path d="M9.3717 28.1919H1.87109L3.74235 25.5566H7.50049L9.3717 28.1919Z" fill="#AEE69C"/>
<path d="M9.3717 11.1367H1.87109L3.74235 13.7719H7.50049L9.3717 11.1367Z" fill="#AEE69C"/>
<path d="M3.74268 13.7717H7.50082V25.5565H3.74268V13.7717Z" fill="#EAF6FF"/>
<path d="M7.50066 25.5566H5.62939L7.50066 28.1919H9.37185L7.50066 25.5566Z" fill="#89DAA4"/>
<path d="M7.50066 11.1367L5.62939 13.7719H7.50066L9.37185 11.1367H7.50066Z" fill="#89DAA4"/>
<path d="M5.62939 13.7717H7.50058V25.5565H5.62939V13.7717Z" fill="#D8ECFE"/>
<path d="M0 8.32861H31V9.73269C31 10.5081 30.3718 11.1368 29.5965 11.1368H1.40342C0.628356 11.1368 0 10.5082 0 9.73269V8.32861Z" fill="#3D6D93"/>
<path d="M29.1291 8.32861V9.73269C29.1291 10.5082 28.5006 11.1368 27.7256 11.1368H29.5967C30.3717 11.1368 31.0002 10.5082 31.0002 9.73269V8.32861H29.1291Z" fill="#335E80"/>
<path d="M0.623754 28.1919H30.3761C30.7208 28.1919 31 28.4714 31 28.816V30.3762C31 30.7208 30.7208 31.0001 30.3761 31.0001H0.623754C0.279242 31.0001 0 30.7208 0 30.3759V28.816C0 28.4714 0.279242 28.1919 0.623754 28.1919Z" fill="#3D6D93"/>
<path d="M30.3763 28.1919H28.5049C28.8495 28.1919 29.1288 28.4714 29.1288 28.816V30.3762C29.1288 30.7208 28.8495 31.0001 28.5049 31.0001H30.3763C30.7207 31.0001 30.9999 30.7208 30.9999 30.3762V28.816C30.9999 28.4714 30.7207 28.1919 30.3763 28.1919Z" fill="#335E80"/>
<path d="M11.1406 17.6797C11.1406 17.9687 11.2554 18.2459 11.4598 18.4503C11.6642 18.6547 11.9414 18.7695 12.2305 18.7695H12.7754V13.5928H11.1406V17.6797Z" fill="#E0B999"/>
<path d="M8.41602 20.4043H22.584V23.4014H8.41602V20.4043Z" fill="#C3C6C7"/>
<path d="M12.2305 10.0508H18.7695V21.7666H12.2305V10.0508Z" fill="#35A872"/>
<path d="M15.5 18.7695C17.0048 18.7695 18.2246 17.5497 18.2246 16.0449C18.2246 14.5402 17.0048 13.3203 15.5 13.3203C13.9952 13.3203 12.7754 14.5402 12.7754 16.0449C12.7754 17.5497 13.9952 18.7695 15.5 18.7695Z" fill="#3DC285"/>
<path d="M17.4072 16.0449C17.4072 16.1172 17.3785 16.1865 17.3274 16.2376C17.2763 16.2887 17.207 16.3174 17.1348 16.3174H16.8623V16.5898C16.8623 16.6621 16.8336 16.7314 16.7825 16.7825C16.7314 16.8336 16.6621 16.8623 16.5898 16.8623C16.5176 16.8623 16.4483 16.8336 16.3972 16.7825C16.3461 16.7314 16.3174 16.6621 16.3174 16.5898V16.0449C16.3174 15.9727 16.2887 15.9034 16.2376 15.8523C16.1865 15.8012 16.1172 15.7725 16.0449 15.7725C15.9727 15.7725 15.9034 15.8012 15.8523 15.8523C15.8012 15.9034 15.7725 15.9727 15.7725 16.0449C15.7723 16.2376 15.7041 16.424 15.5798 16.5713C15.4555 16.7186 15.2832 16.8172 15.0933 16.8498C14.9034 16.8824 14.7081 16.8469 14.5418 16.7494C14.3756 16.652 14.2491 16.499 14.1847 16.3174H13.8652C13.793 16.3174 13.7237 16.2887 13.6726 16.2376C13.6215 16.1865 13.5928 16.1172 13.5928 16.0449C13.5928 15.9727 13.6215 15.9034 13.6726 15.8523C13.7237 15.8012 13.793 15.7725 13.8652 15.7725H14.1377V15.5C14.1377 15.4277 14.1664 15.3584 14.2175 15.3073C14.2686 15.2562 14.3379 15.2275 14.4102 15.2275C14.4824 15.2275 14.5517 15.2562 14.6028 15.3073C14.6539 15.3584 14.6826 15.4277 14.6826 15.5V16.0449C14.6826 16.1172 14.7113 16.1865 14.7624 16.2376C14.8135 16.2887 14.8828 16.3174 14.9551 16.3174C15.0273 16.3174 15.0966 16.2887 15.1477 16.2376C15.1988 16.1865 15.2275 16.1172 15.2275 16.0449C15.2277 15.8522 15.2959 15.6658 15.4202 15.5185C15.5445 15.3713 15.7168 15.2726 15.9067 15.24C16.0966 15.2074 16.2919 15.243 16.4582 15.3404C16.6244 15.4378 16.7509 15.5908 16.8153 15.7725H17.1348C17.207 15.7725 17.2763 15.8012 17.3274 15.8523C17.3785 15.9034 17.4072 15.9727 17.4072 16.0449Z" fill="#35A872"/>
<path d="M18.7695 12.5029C18.1192 12.5029 17.4955 12.2445 17.0357 11.7846C16.5758 11.3248 16.3174 10.7011 16.3174 10.0508H18.7695V12.5029Z" fill="#3DC285"/>
<path d="M18.7695 21.7666H16.3174C16.3174 21.1163 16.5758 20.4926 17.0357 20.0327C17.4955 19.5729 18.1192 19.3145 18.7695 19.3145V21.7666Z" fill="#3DC285"/>
<path d="M14.6826 21.7666H12.2305V19.3145C12.8808 19.3145 13.5045 19.5729 13.9643 20.0327C14.4242 20.4926 14.6826 21.1163 14.6826 21.7666Z" fill="#3DC285"/>
<path d="M17.1348 8.96094H10.8682V7.59863H17.1348V8.96094Z" fill="#2D85CC"/>
<path d="M22.3115 17.1348L21.2217 19.042L20.1318 17.1348H20.6768V13.3203H21.7666V17.1348H22.3115Z" fill="#35A872"/>
<path d="M22.584 22.0391V22.584H19.8594C19.7871 22.584 19.7178 22.5553 19.6667 22.5042C19.6156 22.4531 19.5869 22.3838 19.5869 22.3115V21.7666H11.4131V22.3115C11.4131 22.3838 11.3844 22.4531 11.3333 22.5042C11.2822 22.5553 11.2129 22.584 11.1406 22.584H8.41602V22.0391H10.8682V21.4941C10.8682 21.4219 10.8969 21.3526 10.948 21.3015C10.9991 21.2504 11.0684 21.2217 11.1406 21.2217H19.8594C19.9316 21.2217 20.0009 21.2504 20.052 21.3015C20.1031 21.3526 20.1318 21.4219 20.1318 21.4941V22.0391H22.584Z" fill="#9AA3A8"/>
<path d="M11.1406 8.96094V10.0508L10.5957 13.3203L12.5954 15.8458C12.6796 15.9522 12.7982 16.0259 12.9309 16.0543C13.0635 16.0827 13.2019 16.0641 13.3223 16.0015C13.4453 15.9376 13.5416 15.832 13.5938 15.7036C13.6461 15.5752 13.651 15.4324 13.6076 15.3007L12.7754 12.7754C13.3535 12.7754 13.9079 12.5457 14.3167 12.137C14.7254 11.7282 14.9551 11.1738 14.9551 10.5957V10.0508H16.8623V8.96094H11.1406Z" fill="#F0C6A4"/>
</g>
<defs>
<clipPath id="clip0_87_127">
<rect width="31" height="31" fill="white"/>
</clipPath>
</defs>
</svg>
