<svg width="43" height="34" viewBox="0 0 43 34" fill="none" xmlns="http://www.w3.org/2000/svg">
<path d="M38.831 5.93457H3.62772C1.80324 5.93457 0.324219 7.41784 0.324219 9.24756V30.151C0.324219 31.9807 1.80324 33.464 3.62772 33.464H38.831C40.6555 33.464 42.1345 31.9807 42.1345 30.151V9.24756C42.1345 7.41784 40.6555 5.93457 38.831 5.93457Z" fill="url(#paint0_linear_29_1018)"/>
<path d="M38.831 5.93457H3.62772C1.80324 5.93457 0.324219 7.41784 0.324219 9.24756V30.151C0.324219 31.9807 1.80324 33.464 3.62772 33.464H38.831C40.6555 33.464 42.1345 31.9807 42.1345 30.151V9.24756C42.1345 7.41784 40.6555 5.93457 38.831 5.93457Z" fill="url(#paint1_linear_29_1018)"/>
<path d="M38.831 5.93457H3.62772C1.80324 5.93457 0.324219 7.41784 0.324219 9.24756V30.151C0.324219 31.9807 1.80324 33.464 3.62772 33.464H38.831C40.6555 33.464 42.1345 31.9807 42.1345 30.151V9.24756C42.1345 7.41784 40.6555 5.93457 38.831 5.93457Z" fill="url(#paint2_linear_29_1018)"/>
<path d="M38.831 0.522461H3.62772C1.80324 0.522461 0.324219 2.00573 0.324219 3.83545V24.7389C0.324219 26.5686 1.80324 28.0519 3.62772 28.0519H38.831C40.6555 28.0519 42.1345 26.5686 42.1345 24.7389V3.83545C42.1345 2.00573 40.6555 0.522461 38.831 0.522461Z" fill="url(#paint3_radial_29_1018)"/>
<g filter="url(#filter0_iii_29_1018)">
<path fill-rule="evenodd" clip-rule="evenodd" d="M37.8413 3.72244H4.6186C4.31991 3.72244 4.03346 3.84144 3.82226 4.05324C3.61106 4.26505 3.4924 4.55233 3.4924 4.85187V23.7223C3.4924 24.3473 3.99544 24.8518 4.6186 24.8518H37.8413C38.14 24.8518 38.4264 24.7328 38.6376 24.521C38.8488 24.3092 38.9675 24.0219 38.9675 23.7223V4.85338C38.9675 4.55383 38.8488 4.26656 38.6376 4.05475C38.4264 3.84294 38.14 3.72395 37.8413 3.72395V3.72244ZM4.6186 2.59302C4.02123 2.59302 3.44832 2.831 3.02592 3.25462C2.60352 3.67824 2.36621 4.25279 2.36621 4.85187V23.7223C2.36621 24.3214 2.60352 24.896 3.02592 25.3196C3.44832 25.7432 4.02123 25.9812 4.6186 25.9812H37.8413C38.4386 25.9812 39.0116 25.7432 39.434 25.3196C39.8564 24.896 40.0937 24.3214 40.0937 23.7223V4.85338C40.0937 4.25429 39.8564 3.67974 39.434 3.25613C39.0116 2.83251 38.4386 2.59452 37.8413 2.59452H4.6186V2.59302Z" fill="url(#paint4_linear_29_1018)"/>
</g>
<path d="M28.503 20.7121C32.3385 20.7121 35.4478 17.8359 35.4478 14.288C35.4478 10.74 32.3385 7.86377 28.503 7.86377C24.6674 7.86377 21.5581 10.74 21.5581 14.288C21.5581 17.8359 24.6674 20.7121 28.503 20.7121Z" fill="#289D5B"/>
<path d="M28.503 20.7121C32.3385 20.7121 35.4478 17.8359 35.4478 14.288C35.4478 10.74 32.3385 7.86377 28.503 7.86377C24.6674 7.86377 21.5581 10.74 21.5581 14.288C21.5581 17.8359 24.6674 20.7121 28.503 20.7121Z" fill="url(#paint5_linear_29_1018)"/>
<path d="M28.503 20.7121C32.3385 20.7121 35.4478 17.8359 35.4478 14.288C35.4478 10.74 32.3385 7.86377 28.503 7.86377C24.6674 7.86377 21.5581 10.74 21.5581 14.288C21.5581 17.8359 24.6674 20.7121 28.503 20.7121Z" fill="url(#paint6_radial_29_1018)"/>
<g filter="url(#filter1_f_29_1018)">
<path d="M19.6811 0.947266H25.9217V28.0535H19.4453L19.6811 0.947266Z" fill="#127531"/>
</g>
<g filter="url(#filter2_f_29_1018)">
<path d="M19.7036 33.1824H25.9217V28.0518H19.4453L19.7036 33.1824Z" fill="#0B3F2E"/>
</g>
<path d="M19.8223 0.522461H26.3917V33.4641H19.8223V0.522461Z" fill="url(#paint7_linear_29_1018)"/>
<path d="M19.8223 0.522461H26.3917V33.4641H19.8223V0.522461Z" fill="url(#paint8_linear_29_1018)"/>
<g filter="url(#filter3_iii_29_1018)">
<path d="M10.7783 8.82302C10.7783 8.57819 10.8753 8.3434 11.0479 8.17028C11.2206 7.99716 11.4547 7.8999 11.6988 7.8999C11.9429 7.8999 12.1771 7.99716 12.3497 8.17028C12.5223 8.3434 12.6193 8.57819 12.6193 8.82302V9.8395C14.1224 10.2085 14.8446 11.3966 14.9468 12.3935C15.0068 12.9612 14.696 13.3467 14.2005 13.398C13.9629 13.4224 13.7255 13.3512 13.5402 13.2002C13.3549 13.0491 13.237 12.8305 13.2124 12.5923C13.1794 12.267 13.0052 11.3228 11.6207 11.3228C9.63863 11.3228 9.59208 13.9461 11.891 13.9461C12.8761 13.9461 13.9182 14.5183 14.3897 15.1764C14.8807 15.8601 15.0414 16.6115 14.9347 17.366C14.6464 18.634 13.7665 19.3854 12.6193 19.6505V20.6293C12.6193 20.7506 12.5955 20.8708 12.5492 20.9828C12.5029 21.0949 12.435 21.1968 12.3495 21.2826C12.2639 21.3684 12.1624 21.4364 12.0506 21.4828C11.9388 21.5293 11.819 21.5532 11.6981 21.5532C11.5771 21.5532 11.4573 21.5293 11.3455 21.4828C11.2338 21.4364 11.1322 21.3684 11.0467 21.2826C10.9611 21.1968 10.8933 21.0949 10.847 20.9828C10.8007 20.8708 10.7768 20.7506 10.7768 20.6293V19.6715C9.49148 19.396 8.57701 18.4713 8.41334 17.0648C8.35477 16.5679 8.6641 16.1191 9.15813 16.0604C9.27565 16.0465 9.39476 16.056 9.50863 16.0883C9.6225 16.1206 9.7289 16.1751 9.82177 16.2487C9.91464 16.3222 9.99215 16.4134 10.0499 16.517C10.1076 16.6206 10.1444 16.7346 10.1582 16.8525C10.1882 17.0995 10.2858 17.4473 10.5005 17.7139C10.6822 17.9428 10.9931 18.1461 11.6222 18.1461C12.4031 18.1461 12.819 17.8599 13.0187 17.5347C13.6269 16.6522 12.9136 15.5589 11.8505 15.5589C10.4255 15.4987 9.72723 15.1373 9.15813 14.5168C8.68552 13.999 8.42028 13.3244 8.41334 12.6224C8.41334 12.1752 8.54397 11.4508 9.03349 10.853C9.47805 10.3152 10.0936 9.94719 10.7768 9.81089V8.82302H10.7783Z" fill="url(#paint9_linear_29_1018)"/>
</g>
<defs>
<filter id="filter0_iii_29_1018" x="2.16621" y="2.59302" width="38.1275" height="23.5882" filterUnits="userSpaceOnUse" color-interpolation-filters="sRGB">
<feFlood flood-opacity="0" result="BackgroundImageFix"/>
<feBlend mode="normal" in="SourceGraphic" in2="BackgroundImageFix" result="shape"/>
<feColorMatrix in="SourceAlpha" type="matrix" values="0 0 0 0 0 0 0 0 0 0 0 0 0 0 0 0 0 0 127 0" result="hardAlpha"/>
<feOffset dy="0.2"/>
<feGaussianBlur stdDeviation="0.125"/>
<feComposite in2="hardAlpha" operator="arithmetic" k2="-1" k3="1"/>
<feColorMatrix type="matrix" values="0 0 0 0 0.0941176 0 0 0 0 0.509804 0 0 0 0 0.254902 0 0 0 1 0"/>
<feBlend mode="normal" in2="shape" result="effect1_innerShadow_29_1018"/>
<feColorMatrix in="SourceAlpha" type="matrix" values="0 0 0 0 0 0 0 0 0 0 0 0 0 0 0 0 0 0 127 0" result="hardAlpha"/>
<feOffset dx="-0.2"/>
<feGaussianBlur stdDeviation="0.125"/>
<feComposite in2="hardAlpha" operator="arithmetic" k2="-1" k3="1"/>
<feColorMatrix type="matrix" values="0 0 0 0 0.0941176 0 0 0 0 0.509804 0 0 0 0 0.254902 0 0 0 1 0"/>
<feBlend mode="normal" in2="effect1_innerShadow_29_1018" result="effect2_innerShadow_29_1018"/>
<feColorMatrix in="SourceAlpha" type="matrix" values="0 0 0 0 0 0 0 0 0 0 0 0 0 0 0 0 0 0 127 0" result="hardAlpha"/>
<feOffset dx="0.2"/>
<feGaussianBlur stdDeviation="0.125"/>
<feComposite in2="hardAlpha" operator="arithmetic" k2="-1" k3="1"/>
<feColorMatrix type="matrix" values="0 0 0 0 0.172549 0 0 0 0 0.709804 0 0 0 0 0.4 0 0 0 1 0"/>
<feBlend mode="normal" in2="effect2_innerShadow_29_1018" result="effect3_innerShadow_29_1018"/>
</filter>
<filter id="filter1_f_29_1018" x="19.0453" y="0.547266" width="7.27656" height="27.9062" filterUnits="userSpaceOnUse" color-interpolation-filters="sRGB">
<feFlood flood-opacity="0" result="BackgroundImageFix"/>
<feBlend mode="normal" in="SourceGraphic" in2="BackgroundImageFix" result="shape"/>
<feGaussianBlur stdDeviation="0.2" result="effect1_foregroundBlur_29_1018"/>
</filter>
<filter id="filter2_f_29_1018" x="19.1953" y="27.8018" width="6.97656" height="5.63062" filterUnits="userSpaceOnUse" color-interpolation-filters="sRGB">
<feFlood flood-opacity="0" result="BackgroundImageFix"/>
<feBlend mode="normal" in="SourceGraphic" in2="BackgroundImageFix" result="shape"/>
<feGaussianBlur stdDeviation="0.125" result="effect1_foregroundBlur_29_1018"/>
</filter>
<filter id="filter3_iii_29_1018" x="8.30625" y="7.7999" width="6.76006" height="13.8533" filterUnits="userSpaceOnUse" color-interpolation-filters="sRGB">
<feFlood flood-opacity="0" result="BackgroundImageFix"/>
<feBlend mode="normal" in="SourceGraphic" in2="BackgroundImageFix" result="shape"/>
<feColorMatrix in="SourceAlpha" type="matrix" values="0 0 0 0 0 0 0 0 0 0 0 0 0 0 0 0 0 0 127 0" result="hardAlpha"/>
<feOffset dx="-0.1" dy="0.1"/>
<feGaussianBlur stdDeviation="0.075"/>
<feComposite in2="hardAlpha" operator="arithmetic" k2="-1" k3="1"/>
<feColorMatrix type="matrix" values="0 0 0 0 0.0901961 0 0 0 0 0.521569 0 0 0 0 0.223529 0 0 0 1 0"/>
<feBlend mode="normal" in2="shape" result="effect1_innerShadow_29_1018"/>
<feColorMatrix in="SourceAlpha" type="matrix" values="0 0 0 0 0 0 0 0 0 0 0 0 0 0 0 0 0 0 127 0" result="hardAlpha"/>
<feOffset dx="0.1" dy="-0.1"/>
<feGaussianBlur stdDeviation="0.05"/>
<feComposite in2="hardAlpha" operator="arithmetic" k2="-1" k3="1"/>
<feColorMatrix type="matrix" values="0 0 0 0 0.784314 0 0 0 0 0.760784 0 0 0 0 0.752941 0 0 0 1 0"/>
<feBlend mode="normal" in2="effect1_innerShadow_29_1018" result="effect2_innerShadow_29_1018"/>
<feColorMatrix in="SourceAlpha" type="matrix" values="0 0 0 0 0 0 0 0 0 0 0 0 0 0 0 0 0 0 127 0" result="hardAlpha"/>
<feOffset dx="-0.1" dy="0.1"/>
<feGaussianBlur stdDeviation="0.05"/>
<feComposite in2="hardAlpha" operator="arithmetic" k2="-1" k3="1"/>
<feColorMatrix type="matrix" values="0 0 0 0 1 0 0 0 0 0.996078 0 0 0 0 0.992157 0 0 0 1 0"/>
<feBlend mode="normal" in2="effect2_innerShadow_29_1018" result="effect3_innerShadow_29_1018"/>
</filter>
<linearGradient id="paint0_linear_29_1018" x1="39.4121" y1="31.6298" x2="1.77926" y2="31.6298" gradientUnits="userSpaceOnUse">
<stop stop-color="#12724A"/>
<stop offset="1" stop-color="#116245"/>
</linearGradient>
<linearGradient id="paint1_linear_29_1018" x1="42.1345" y1="30.3121" x2="38.1463" y2="30.3121" gradientUnits="userSpaceOnUse">
<stop stop-color="#1C8F60"/>
<stop offset="1" stop-color="#1C8F60" stop-opacity="0"/>
</linearGradient>
<linearGradient id="paint2_linear_29_1018" x1="0.324219" y1="30.1239" x2="4.45359" y2="30.1239" gradientUnits="userSpaceOnUse">
<stop offset="0.557" stop-color="#195840"/>
<stop offset="1" stop-color="#195840" stop-opacity="0"/>
</linearGradient>
<radialGradient id="paint3_radial_29_1018" cx="0" cy="0" r="1" gradientUnits="userSpaceOnUse" gradientTransform="translate(1.24019 1.60521) rotate(48.3409) scale(29.2266 38.3139)">
<stop stop-color="#31DE74"/>
<stop offset="1" stop-color="#20CF5E"/>
</radialGradient>
<linearGradient id="paint4_linear_29_1018" x1="35.682" y1="3.11105" x2="8.96667" y2="25.1545" gradientUnits="userSpaceOnUse">
<stop stop-color="#24A35B"/>
<stop offset="1" stop-color="#27A05A"/>
</linearGradient>
<linearGradient id="paint5_linear_29_1018" x1="26.204" y1="15.065" x2="28.8784" y2="15.065" gradientUnits="userSpaceOnUse">
<stop offset="0.228" stop-color="#269553"/>
<stop offset="1" stop-color="#269553" stop-opacity="0"/>
</linearGradient>
<radialGradient id="paint6_radial_29_1018" cx="0" cy="0" r="1" gradientUnits="userSpaceOnUse" gradientTransform="translate(28.5021 15.2988) rotate(-40.8833) scale(7.26176 7.1406)">
<stop offset="0.587" stop-color="#249755" stop-opacity="0"/>
<stop offset="0.987" stop-color="#16793D"/>
</radialGradient>
<linearGradient id="paint7_linear_29_1018" x1="23.1062" y1="3.01774" x2="23.1062" y2="29.0879" gradientUnits="userSpaceOnUse">
<stop stop-color="#FFD425"/>
<stop offset="1" stop-color="#FFAD24"/>
</linearGradient>
<linearGradient id="paint8_linear_29_1018" x1="24.7024" y1="33.4641" x2="24.7024" y2="27.6769" gradientUnits="userSpaceOnUse">
<stop offset="0.894" stop-color="#CC8139"/>
<stop offset="1" stop-color="#CC8139" stop-opacity="0"/>
</linearGradient>
<linearGradient id="paint9_linear_29_1018" x1="11.6868" y1="7.8999" x2="11.6868" y2="21.5524" gradientUnits="userSpaceOnUse">
<stop stop-color="#EFEAEA"/>
<stop offset="1" stop-color="#EAE3E3"/>
</linearGradient>
</defs>
</svg>
