<svg width="79" height="40" viewBox="0 0 79 40" fill="none" xmlns="http://www.w3.org/2000/svg">
<path d="M0.671875 39.2139V13.7388H9.42286V39.2139H0.671875ZM13.7984 39.2139V2.15918H22.5493V39.2139H13.7984ZM26.9248 39.2139V23.0025H35.6758V39.2139H26.9248Z" fill="white"/>
<g clip-path="url(#clip0_40_6)">
<path d="M43.8199 0.975029H47.1399C48.2733 0.975029 49.0999 1.23503 49.6199 1.75503C50.1399 2.26203 50.3999 3.04853 50.3999 4.11453V4.66053C50.3999 5.36253 50.2799 5.93453 50.0399 6.37653C49.8133 6.81853 49.4599 7.13703 48.9799 7.33203V7.37103C50.0733 7.73503 50.6199 8.68403 50.6199 10.218V11.388C50.6199 12.441 50.3333 13.2471 49.7599 13.806C49.1999 14.352 48.3733 14.625 47.2799 14.625H43.8199V0.975029ZM46.8799 6.53253C47.3199 6.53253 47.6466 6.42203 47.8599 6.20103C48.0866 5.98003 48.1999 5.60953 48.1999 5.08953V4.32903C48.1999 3.83503 48.1066 3.47753 47.9199 3.25653C47.7466 3.03553 47.4666 2.92503 47.0799 2.92503H46.0199V6.53253H46.8799ZM47.2799 12.675C47.6666 12.675 47.9533 12.5775 48.1399 12.3825C48.3266 12.1746 48.4199 11.8236 48.4199 11.3295V10.14C48.4199 9.51603 48.3066 9.08703 48.0799 8.85303C47.8666 8.60603 47.5066 8.48253 46.9999 8.48253H46.0199V12.675H47.2799ZM55.0858 14.82C54.0058 14.82 53.1792 14.521 52.6059 13.923C52.0325 13.3251 51.7459 12.48 51.7459 11.388V4.21203C51.7459 3.12003 52.0325 2.27503 52.6059 1.67703C53.1792 1.07903 54.0058 0.780029 55.0858 0.780029C56.1658 0.780029 56.9925 1.07903 57.5658 1.67703C58.1392 2.27503 58.4258 3.12003 58.4258 4.21203V11.388C58.4258 12.48 58.1392 13.3251 57.5658 13.923C56.9925 14.521 56.1658 14.82 55.0858 14.82ZM55.0858 12.87C55.8458 12.87 56.2258 12.4215 56.2258 11.5245V4.07553C56.2258 3.17853 55.8458 2.73003 55.0858 2.73003C54.3258 2.73003 53.9458 3.17853 53.9458 4.07553V11.5245C53.9458 12.4215 54.3258 12.87 55.0858 12.87ZM61.5555 2.92503H59.2555V0.975029H66.0555V2.92503H63.7555V14.625H61.5555V2.92503ZM46.6799 38.22C45.6133 38.22 44.8066 37.9275 44.2599 37.3425C43.7133 36.7446 43.4399 35.893 43.4399 34.788V34.008H45.5199V34.944C45.5199 35.8281 45.8999 36.27 46.6599 36.27C47.0333 36.27 47.3133 36.166 47.4999 35.958C47.6999 35.737 47.7999 35.386 47.7999 34.905C47.7999 34.333 47.6666 33.8325 47.3999 33.4035C47.1333 32.9616 46.6399 32.4351 45.9199 31.824C45.0133 31.044 44.3799 30.342 44.0199 29.718C43.6599 29.0811 43.4799 28.366 43.4799 27.573C43.4799 26.494 43.7599 25.662 44.3199 25.077C44.8799 24.4791 45.6933 24.18 46.7599 24.18C47.8133 24.18 48.6066 24.4791 49.1399 25.077C49.6866 25.662 49.9599 26.5071 49.9599 27.612V28.1775H47.8799V27.4755C47.8799 27.0075 47.7866 26.6695 47.5999 26.4615C47.4133 26.2405 47.1399 26.13 46.7799 26.13C46.0466 26.13 45.6799 26.5656 45.6799 27.4365C45.6799 27.9306 45.8133 28.392 46.0799 28.821C46.3599 29.25 46.8599 29.77 47.5799 30.381C48.4999 31.161 49.1333 31.8696 49.4799 32.5065C49.8266 33.1435 49.9999 33.891 49.9999 34.749C49.9999 35.8671 49.7133 36.7251 49.1399 37.323C48.5799 37.921 47.7599 38.22 46.6799 38.22ZM52.9814 26.325H50.6814V24.375H57.4813V26.325H55.1813V38.025H52.9814V26.325ZM59.3285 24.375H62.3085L64.5885 38.025H62.3885L61.9885 35.3145V35.3535H59.4885L59.0885 38.025H57.0485L59.3285 24.375ZM61.7285 33.501L60.7485 26.754H60.7085L59.7485 33.501H61.7285ZM66.4579 26.325H64.1579V24.375H70.9579V26.325H68.6579V38.025H66.4579V26.325ZM74.883 38.22C73.8164 38.22 73.0097 37.9275 72.463 37.3425C71.9164 36.7446 71.643 35.893 71.643 34.788V34.008H73.723V34.944C73.723 35.8281 74.103 36.27 74.863 36.27C75.2364 36.27 75.5164 36.166 75.703 35.958C75.903 35.737 76.003 35.386 76.003 34.905C76.003 34.333 75.8697 33.8325 75.603 33.4035C75.3364 32.9616 74.843 32.4351 74.123 31.824C73.2164 31.044 72.583 30.342 72.223 29.718C71.863 29.0811 71.683 28.366 71.683 27.573C71.683 26.494 71.963 25.662 72.523 25.077C73.083 24.4791 73.8964 24.18 74.963 24.18C76.0164 24.18 76.8097 24.4791 77.343 25.077C77.8897 25.662 78.163 26.5071 78.163 27.612V28.1775H76.083V27.4755C76.083 27.0075 75.9897 26.6695 75.803 26.4615C75.6164 26.2405 75.343 26.13 74.983 26.13C74.2497 26.13 73.883 26.5656 73.883 27.4365C73.883 27.9306 74.0164 28.392 74.283 28.821C74.563 29.25 75.063 29.77 75.783 30.381C76.703 31.161 77.3364 31.8696 77.683 32.5065C78.0297 33.1435 78.203 33.891 78.203 34.749C78.203 35.8671 77.9164 36.7251 77.343 37.323C76.783 37.921 75.963 38.22 74.883 38.22Z" fill="white"/>
</g>
<defs>
<clipPath id="clip0_40_6">
<rect width="36" height="39" fill="white" transform="translate(43)"/>
</clipPath>
</defs>
</svg>
