<svg width="28" height="28" viewBox="0 0 28 28" fill="none" xmlns="http://www.w3.org/2000/svg">
<g clip-path="url(#clip0_87_120)">
<path d="M14 28C21.732 28 28 21.732 28 14C28 6.26802 21.732 0 14 0C6.26802 0 0 6.26802 0 14C0 21.732 6.26802 28 14 28Z" fill="#FFE14D"/>
<path d="M28 14C28 6.28038 21.7196 0 14 0V28C21.7196 28 28 21.7196 28 14Z" fill="#FFBB33"/>
<path d="M14 24.6641C8.12 24.6641 3.33594 19.88 3.33594 14C3.33594 8.12 8.12 3.33594 14 3.33594C19.88 3.33594 24.6641 8.12 24.6641 14C24.6641 19.88 19.88 24.6641 14 24.6641Z" fill="#FFBB33"/>
<path d="M24.6641 14C24.6641 8.12 19.88 3.33594 14 3.33594V24.6641C19.88 24.6641 24.6641 19.88 24.6641 14Z" fill="#E68A2E"/>
<path d="M14.8203 13.238V9.99472C15.7638 10.2262 16.4609 10.8333 16.4609 11.531C16.4609 11.9844 16.8278 12.3513 17.2812 12.3513C17.7347 12.3513 18.1016 11.9844 18.1016 11.531C18.1016 9.94605 16.6906 8.62087 14.8203 8.31615V7.42944C14.8203 6.97604 14.4534 6.60913 14 6.60913C13.5466 6.60913 13.1797 6.97604 13.1797 7.42944V8.31615C11.3094 8.62087 9.89844 9.94605 9.89844 11.531C9.89844 13.116 11.3094 14.4411 13.1797 14.7459V17.9892C12.2362 17.7577 11.5391 17.1507 11.5391 16.4529C11.5391 15.9995 11.1722 15.6326 10.7188 15.6326C10.2653 15.6326 9.89844 15.9995 9.89844 16.4529C9.89844 18.0378 11.3094 19.363 13.1797 19.6677V20.5624C13.1797 21.0159 13.5466 21.3827 14 21.3827C14.4534 21.3827 14.8203 21.0159 14.8203 20.5624V19.6677C16.6906 19.363 18.1016 18.0378 18.1016 16.4529C18.1016 14.8679 16.6906 13.5427 14.8203 13.238ZM11.5391 11.531C11.5391 10.8333 12.2362 10.2262 13.1797 9.99472V13.0673C12.2362 12.8357 11.5391 12.2287 11.5391 11.531ZM14.8203 17.9892V14.9166C15.7638 15.1481 16.4609 15.7551 16.4609 16.4529C16.4609 17.1507 15.7638 17.7576 14.8203 17.9892Z" fill="#FFE14D"/>
<path d="M14.8203 20.5624V19.6677C16.6906 19.363 18.1016 18.0378 18.1016 16.4529C18.1016 14.8679 16.6906 13.5427 14.8203 13.238V9.99472C15.7638 10.2262 16.4609 10.8333 16.4609 11.531C16.4609 11.9844 16.8278 12.3513 17.2812 12.3513C17.7347 12.3513 18.1016 11.9844 18.1016 11.531C18.1016 9.94605 16.6906 8.62087 14.8203 8.31615V7.42944C14.8203 6.97604 14.4534 6.60913 14 6.60913V21.3827C14.4534 21.3827 14.8203 21.0159 14.8203 20.5624ZM14.8203 14.9165C15.7638 15.148 16.4609 15.7551 16.4609 16.4528C16.4609 17.1506 15.7638 17.7576 14.8203 17.9891V14.9165Z" fill="#FFBB33"/>
</g>
<defs>
<clipPath id="clip0_87_120">
<rect width="28" height="28" fill="white"/>
</clipPath>
</defs>
</svg>
