<svg width="29" height="29" viewBox="0 0 29 29" fill="none" xmlns="http://www.w3.org/2000/svg">
<path d="M26.875 14.5C26.875 21.3345 21.3345 26.875 14.5 26.875C7.66547 26.875 2.125 21.3345 2.125 14.5C2.125 7.66547 7.66547 2.125 14.5 2.125C21.3345 2.125 26.875 7.66547 26.875 14.5Z" fill="#E6E6E6"/>
<path d="M14.5298 5.22778C15.0993 5.22778 15.561 5.68948 15.561 6.25903V14.5043C15.561 15.0739 15.0993 15.5355 14.5298 15.5355C13.9602 15.5355 13.4985 15.0739 13.4985 14.5043V6.25903C13.4985 5.68948 13.9602 5.22778 14.5298 5.22778Z" fill="#CA0B4A"/>
<path d="M18.0926 8.28945C18.5859 8.57424 18.7548 9.20496 18.4701 9.6982L15.3932 15.0274C15.1085 15.5206 14.4778 15.6896 13.9846 15.4048C13.4913 15.1201 13.3223 14.4894 13.6071 13.9961L16.684 8.66695C16.9687 8.17368 17.5994 8.00469 18.0926 8.28945Z" fill="black"/>
<path d="M14.5 25.8438C20.7649 25.8438 25.8438 20.7649 25.8438 14.5C25.8438 8.23502 20.7649 3.15625 14.5 3.15625C8.23502 3.15625 3.15625 8.23502 3.15625 14.5C3.15625 20.7649 8.23502 25.8438 14.5 25.8438ZM14.5 28.9375C6.52639 28.9375 0.0625 22.4736 0.0625 14.5C0.0625 6.52639 6.52639 0.0625 14.5 0.0625C22.4736 0.0625 28.9375 6.52639 28.9375 14.5C28.9375 22.4736 22.4736 28.9375 14.5 28.9375Z" fill="#636363"/>
<path d="M16.5833 14.5115C16.5833 15.6442 15.6651 16.5625 14.5324 16.5625C13.3997 16.5625 12.4814 15.6442 12.4814 14.5115C12.4814 13.3788 13.3997 12.4604 14.5324 12.4604C15.6651 12.4604 16.5833 13.3788 16.5833 14.5115Z" fill="#9B9B9B"/>
</svg>
